<svg id="图层_1" data-name="图层 1" xmlns="http://www.w3.org/2000/svg" viewBox="0 0 362.51 263.53"><defs><style>.cls-1{fill:#ed6c00;}.cls-2{fill:#06383c;}</style></defs><path class="cls-1" d="M406.84,239.82V220.4a2.61,2.61,0,0,0-2.58-2.42l.07,0a113.88,113.88,0,0,1-20-2.09,1.39,1.39,0,0,0-1.52.43c-.33.55-.17,1,0,1.62s1,3.4,1,3.4c.53,2.3,3.62,2.86,5.59,3.29l8.78,1.9c4.23.91,5.38,4.2,5.38,8.54v3.85c0,3.39-.56,5.58-2.81,5.68-2.84.13-4.92-2.7-6-5.18,0,0-.05-.1-.07-.16l0-.08c-.1-.22-.19-.44-.26-.64-.75-1.86-2.43-5.94-2.43-5.94a2.17,2.17,0,0,0-.57-1,1.76,1.76,0,0,0-1.12-.33h-3l3.84,13.27c.78,2.72,1.74,5.86,3.88,7.86,2.65,2.48,7,3.82,12.66,3.82s10-1.34,12.66-3.82c2.14-2,3.11-5.14,3.89-7.86L428,231.27h-3a1.75,1.75,0,0,0-1.11.33,2.12,2.12,0,0,0-.56,1s-1.68,4.08-2.43,5.94c-.08.2-.17.42-.27.64l0,.08-.08.16c-1.12,2.48-3.2,5.31-6.05,5.18-2.24-.1-2.79-2.29-2.8-5.68V235c0-4.34,1.15-7.63,5.39-8.54l8.78-1.9c2-.43,5.06-1,5.58-3.29,0,0,.82-2.75,1-3.4s.33-1.07,0-1.62a1.38,1.38,0,0,0-1.51-.43,114.2,114.2,0,0,1-20,2.09l.07,0a2.61,2.61,0,0,0-2.59,2.42v19.42a.78.78,0,1,1-1.56,0" transform="translate(-226.58 -137.75)"/><path class="cls-1" d="M408.07,140.32s-6,3.33-8.11,7.83c-.9,1.9-.38,3.12,3.07,1a72.91,72.91,0,0,1,14.6-7.17c5.8-2.06,16.43-4.55,17.2-4.18.32.15.33.75-.28,1.31-15.06,13.84-16.68,24.14-12.58,25.77,2,.81,5.45.34,8.51-.66s6-2.28,9.44-2.39c8-.25,11.41,15,2.73,29.43-4.87,8.1-17.83,18.4-18.76,18-.41-.17-.56-.63-.37-1.38.11-.49,4.77-10.72,1.09-12.34-.58-.26-2,.15-3.38,3.4-1.77,4.19-3.12,5-3.83,4.79s-.47-1.33-.36-2.12.28-1.44-.15-1.15-4.58,4.94-5.89,4.83c-.46,0-.75-.54-.45-1.23s.61-1.62.61-1.62S404,209.38,395.3,211c-.65.13-2.39.55-2.94.25a.77.77,0,0,1,.06-1.25c.56-.38,9.8-5.16,13.79-11.88,1.21-2,1.24-3.09.92-3.64-.81-1.38-4.74,0-7.33,1.09s-6.45,3.35-11.38,4.19c-6.09,1-13.37-.82-17.13-5.5-4.34-5.4-4.61-10.72-4-16.11,1.93-16.9,18.09-27.61,23.68-31.06,6.77-4.16,16.8-8.5,17.57-8.19.4.16.56.76-.48,1.38" transform="translate(-226.58 -137.75)"/><path class="cls-2" d="M297.36,293.31v41.87c0,10,.26,14.44,3.21,18.36s8.07,5.94,13.07,5.94c4.74,0,11.15-1.91,14-7.29,1.92-3.24,2.82-6.71,2.82-17.12V293.31h11.15v42.1c0,5.26,2.31,32.91-31,32.91-4.75,0-19.36-.56-26.53-13.22-2.57-4.47-3.08-9.62-3.08-18V293.31Z" transform="translate(-226.58 -137.75)"/><path class="cls-2" d="M390,303.27A37.91,37.91,0,0,0,377,300.7c-8.07,0-12.56,3.69-12.56,8.73,0,3.59,2.31,6.94,10.13,12.09l5.12,3.47c10.77,7.17,18.07,12.43,18.07,22.73,0,11.53-10.25,20.6-26.53,20.6-9.49,0-17.17-3.41-21.4-5.31v-9.69l5,2.45c4.74,2.13,9.74,4.15,16,4.15,8.46,0,12.31-4.7,12.31-9.18,0-4.81-3.85-7.95-11.29-13l-5.12-3.59c-9.1-6-16.92-12.31-16.92-22.27,0-11,11-19.59,26.4-19.59A47,47,0,0,1,392,294.93v9.25Z" transform="translate(-226.58 -137.75)"/><path class="cls-2" d="M266.82,303.27a37.91,37.91,0,0,0-13.07-2.57c-8.07,0-12.56,3.69-12.56,8.73,0,3.59,2.31,6.94,10.12,12.09l5.13,3.47c10.77,7.17,18.08,12.43,18.08,22.73,0,11.53-10.25,20.6-26.54,20.6-9.49,0-17.16-3.41-21.4-5.31v-9.69l5,2.45c4.74,2.13,9.74,4.15,16,4.15,8.46,0,12.31-4.7,12.31-9.18,0-4.81-3.85-7.95-11.28-13l-5.13-3.59c-9.1-6-16.92-12.31-16.92-22.27,0-11,11-19.59,26.4-19.59a47,47,0,0,1,15.81,2.62v9.25Z" transform="translate(-226.58 -137.75)"/><polygon class="cls-2" points="232.98 155.56 232.98 163.95 210.94 163.95 210.94 229.44 194.66 229.44 194.66 163.95 172.49 163.95 172.49 155.56 232.98 155.56"/><path class="cls-2" d="M489,339.32a12.17,12.17,0,0,0-2.5-7.38,8.62,8.62,0,0,0-6.94-2.86,9.68,9.68,0,0,0-7.18,3.1,14.32,14.32,0,0,0-3.71,7.14ZM559.54,327a16.32,16.32,0,0,1,13.26-6.17c11.62,0,15.63,8,15.63,18.67v27.69h-9.69V341.29c0-6.14-1.52-12.05-8.69-12.05a9.41,9.41,0,0,0-7.47,3.46,13.22,13.22,0,0,0-3,8.94v25.57h-9.73V301.08h9.73ZM540.71,365.1a24,24,0,0,1-12.51,3.12c-6.13,0-11.6-1.86-15.84-6.34s-6-10.16-6-16.32c0-6.69,1.78-12.94,6.44-17.88s10.62-6.83,17.25-6.83a23.84,23.84,0,0,1,10.65,2.22l.56.29V333.6l-1.63-1.19a15.73,15.73,0,0,0-9.58-3.17,12.74,12.74,0,0,0-9.94,4.22c-2.88,3.18-3.86,7.26-3.86,11.47,0,4,.85,8,3.61,11a12.63,12.63,0,0,0,9.76,3.91,16.41,16.41,0,0,0,10-3.49l1.64-1.21v9.66Zm-72.22-17.59a14.16,14.16,0,0,0,3.46,9c2.47,2.58,5.83,3.45,9.32,3.45A20.49,20.49,0,0,0,494,355.51l1.64-1.27v9.46l-.43.3c-4.56,3.23-10.25,4.22-15.75,4.22-6,0-11.4-1.75-15.42-6.29-4.21-4.74-5.52-11-5.52-17.2,0-6.38,1.73-12.27,6-17.08a19.48,19.48,0,0,1,15.11-6.8c5.45,0,10.39,1.63,14,5.8,3.86,4.41,5,10.26,5,16v4.9Z" transform="translate(-226.58 -137.75)"/><path class="cls-2" d="M504.47,397.45V387h-4v-1.42h9.6V387h-4v10.41h-1.59Zm10.83.23a3.68,3.68,0,0,1-2.87-1.16,4.59,4.59,0,0,1-1-3.2,5.1,5.1,0,0,1,1.11-3.46,3.71,3.71,0,0,1,3-1.29,3.39,3.39,0,0,1,2.73,1.26,5,5,0,0,1,1,3.3l0,.51h-6.28a3.62,3.62,0,0,0,.58,2,2.22,2.22,0,0,0,1.93.83,2.41,2.41,0,0,0,1.45-.46,1.9,1.9,0,0,0,.75-1.18h1.44a3.67,3.67,0,0,1-1.29,2.15,4,4,0,0,1-2.49.74m2.42-5.2h0a3.18,3.18,0,0,0-.6-1.87,2,2,0,0,0-1.71-.74,2.2,2.2,0,0,0-1.83.85,3.27,3.27,0,0,0-.65,1.76Zm10.45,1.87h0a3.94,3.94,0,0,1-1.15,2.48,3.46,3.46,0,0,1-2.46.85,3.33,3.33,0,0,1-2.72-1.23,5,5,0,0,1-1-3.32,4.92,4.92,0,0,1,1.06-3.32,3.95,3.95,0,0,1,5.32-.39,3.2,3.2,0,0,1,1,2.33h-1.38a2,2,0,0,0-2.12-1.93,2,2,0,0,0-1.72.89,4.09,4.09,0,0,0-.62,2.42,4.29,4.29,0,0,0,.58,2.47,2.16,2.16,0,0,0,3.13.29,2.74,2.74,0,0,0,.75-1.54Zm1.88,3.1V385.62h1.45V390l.25-.32a3,3,0,0,1,2.36-1.1,2.93,2.93,0,0,1,2.19.78,3,3,0,0,1,.77,2.2v5.9h-1.45V391.9a2.3,2.3,0,0,0-.41-1.53,1.61,1.61,0,0,0-1.33-.48,2.12,2.12,0,0,0-1.74.79,3.4,3.4,0,0,0-.64,2.15v4.62h-1.45Zm9.6,0v-8.61H541v1.26l.32-.43a3,3,0,0,1,2.35-1.1,2.7,2.7,0,0,1,3,3v5.9h-1.45V392a2.52,2.52,0,0,0-.43-1.64,1.81,1.81,0,0,0-1.42-.5,2,2,0,0,0-1.65.79,3.45,3.45,0,0,0-.61,2.15v4.62h-1.45Zm13.09.23a3.64,3.64,0,0,1-2.88-1.26,5.46,5.46,0,0,1,0-6.6,4,4,0,0,1,5.79,0,5.5,5.5,0,0,1,0,6.6,3.68,3.68,0,0,1-2.91,1.26m0-1.25a2.17,2.17,0,0,0,1.82-.89,4.61,4.61,0,0,0,0-4.82,2.28,2.28,0,0,0-3.63,0,4.67,4.67,0,0,0,0,4.82,2.17,2.17,0,0,0,1.81.89m6.13,1V385.62h1.45v11.83h-1.45Zm7.56.23a3.65,3.65,0,0,1-2.89-1.26,5.46,5.46,0,0,1,0-6.6,4,4,0,0,1,5.79,0,5.5,5.5,0,0,1,0,6.6,3.66,3.66,0,0,1-2.9,1.26m0-1.25a2.15,2.15,0,0,0,1.81-.89,4.61,4.61,0,0,0,0-4.82,2.13,2.13,0,0,0-1.81-.9,2.16,2.16,0,0,0-1.82.9,4.73,4.73,0,0,0,0,4.82,2.18,2.18,0,0,0,1.82.89m9.24,3.46a2.35,2.35,0,0,0,1.9-.78,3.56,3.56,0,0,0,.64-2.3v-.28h0a2.82,2.82,0,0,1-2.33,1.14,3.35,3.35,0,0,1-2.76-1.29,5.55,5.55,0,0,1-1-3.49,4.67,4.67,0,0,1,1-3.13,3.26,3.26,0,0,1,2.63-1.2,2.83,2.83,0,0,1,2.46,1.35l.11.15v-1.23h1.35v8a4.59,4.59,0,0,1-1,3.22,3.87,3.87,0,0,1-3,1,3.63,3.63,0,0,1-2.31-.67,2.88,2.88,0,0,1-1-2h1.49a1.56,1.56,0,0,0,.61,1.06,2,2,0,0,0,1.24.38m.28-10a2,2,0,0,0-1.77.77,4.3,4.3,0,0,0-.56,2.46,4.14,4.14,0,0,0,.61,2.45,2,2,0,0,0,1.72.86,2.08,2.08,0,0,0,1.7-.79,3.25,3.25,0,0,0,.63-2.09,5.32,5.32,0,0,0-.57-2.75,2,2,0,0,0-1.76-.91m13.14-1.05-3.28,8.9a8.31,8.31,0,0,1-1.35,2.6,2.37,2.37,0,0,1-1.77.61,2.2,2.2,0,0,1-.7-.09v-1.35a2.49,2.49,0,0,0,.83.13,1,1,0,0,0,.82-.4,6,6,0,0,0,.75-1.5l0-.15h0l-3.2-8.76h1.65l2.3,7.12,2.33-7.12h1.59Z" transform="translate(-226.58 -137.75)"/><path class="cls-2" d="M386.78,398a3.69,3.69,0,0,1-2.9-1.26,5.5,5.5,0,0,1,0-6.6,4,4,0,0,1,5.8,0,5.5,5.5,0,0,1,0,6.6,3.69,3.69,0,0,1-2.9,1.26m0-1.25a2.17,2.17,0,0,0,1.81-.89,4.61,4.61,0,0,0,0-4.82,2.28,2.28,0,0,0-3.63,0,4.67,4.67,0,0,0,0,4.82,2.17,2.17,0,0,0,1.82.89m7.88-6.38h0v7.4h-1.45v-7.4H392v-1.2h1.19v-1.47a1.82,1.82,0,0,1,.56-1.44,2.56,2.56,0,0,1,1.69-.48l.63,0v1.31l-.57,0a.81.81,0,0,0-.64.27,1.16,1.16,0,0,0-.22.77v1.05h1.43v1.2Zm14.27-1h0a2.33,2.33,0,0,0-.89-1.72A3.21,3.21,0,0,0,406,387a3.4,3.4,0,0,0-2.06.52,1.8,1.8,0,0,0-.7,1.53,1.18,1.18,0,0,0,.47,1,6,6,0,0,0,1.87.67l2.07.49a4.69,4.69,0,0,1,2.36,1.16,3.46,3.46,0,0,1-.5,4.73,5.35,5.35,0,0,1-3.31.94,5.42,5.42,0,0,1-3.61-1.09,3.61,3.61,0,0,1-1.28-2.92V394h1.47a2.46,2.46,0,0,0,.94,2,3.89,3.89,0,0,0,2.48.7,4.07,4.07,0,0,0,2.25-.51,1.67,1.67,0,0,0,.76-1.48,1.53,1.53,0,0,0-.51-1.27,5.51,5.51,0,0,0-2-.76l-2.06-.5a4.68,4.68,0,0,1-2.24-1,2.47,2.47,0,0,1-.65-1.83,3.38,3.38,0,0,1,1.14-2.69,4.64,4.64,0,0,1,3.12-1,4.81,4.81,0,0,1,3.18,1,3.68,3.68,0,0,1,1.26,2.76Zm10.8,5.31h0a4,4,0,0,1-1.14,2.47,3.49,3.49,0,0,1-2.46.85,3.39,3.39,0,0,1-2.74-1.23,5,5,0,0,1-1-3.32,5,5,0,0,1,1.06-3.32,3.93,3.93,0,0,1,5.31-.39,3.13,3.13,0,0,1,1,2.33h-1.38a2,2,0,0,0-2.12-1.93,2,2,0,0,0-1.71.89,4.09,4.09,0,0,0-.63,2.42,4.29,4.29,0,0,0,.58,2.47,2.16,2.16,0,0,0,3.13.29,2.77,2.77,0,0,0,.75-1.53Zm1.94,3.09v-8.61h1.45v8.61h-1.45Zm0-11.84h1.48v1.64h-1.48ZM429.21,398a3.68,3.68,0,0,1-2.87-1.16,4.6,4.6,0,0,1-1-3.21,5.09,5.09,0,0,1,1.11-3.45,3.71,3.71,0,0,1,3-1.29,3.39,3.39,0,0,1,2.73,1.26,5,5,0,0,1,1,3.3V394h-6.28a3.53,3.53,0,0,0,.59,2,2.22,2.22,0,0,0,1.92.83,2.33,2.33,0,0,0,1.45-.47,1.85,1.85,0,0,0,.75-1.18H433a3.67,3.67,0,0,1-1.29,2.16,4,4,0,0,1-2.49.74m2.42-5.21h0a3.24,3.24,0,0,0-.59-1.86,2.08,2.08,0,0,0-1.72-.74,2.22,2.22,0,0,0-1.83.85,3.26,3.26,0,0,0-.65,1.75Zm3.67,5v-8.61h1.38v1.26L437,390a3,3,0,0,1,2.36-1.1,2.7,2.7,0,0,1,3,3v5.9h-1.45v-5.42a2.51,2.51,0,0,0-.44-1.64,1.83,1.83,0,0,0-1.42-.5,2,2,0,0,0-1.65.79,3.45,3.45,0,0,0-.62,2.15v4.62H435.3Zm16.38-3.09h0a4,4,0,0,1-1.15,2.47,3.47,3.47,0,0,1-2.46.85,3.37,3.37,0,0,1-2.73-1.23,5,5,0,0,1-1-3.32,5,5,0,0,1,1.05-3.32,3.95,3.95,0,0,1,5.32-.39,3.25,3.25,0,0,1,1,2.33H450.3a2.19,2.19,0,0,0-.64-1.42,2.16,2.16,0,0,0-1.49-.51,2,2,0,0,0-1.72.89,4.17,4.17,0,0,0-.62,2.42,4.29,4.29,0,0,0,.58,2.47,2.16,2.16,0,0,0,3.13.29,2.85,2.85,0,0,0,.76-1.53Zm5.39,3.32a3.69,3.69,0,0,1-2.88-1.16,4.64,4.64,0,0,1-1-3.21,5.09,5.09,0,0,1,1.1-3.45,3.73,3.73,0,0,1,3-1.29,3.4,3.4,0,0,1,2.72,1.26,5,5,0,0,1,1,3.3l0,.51h-6.28a3.53,3.53,0,0,0,.59,2,2.23,2.23,0,0,0,1.92.83,2.33,2.33,0,0,0,1.45-.47,1.9,1.9,0,0,0,.76-1.18h1.43a3.62,3.62,0,0,1-1.29,2.16,4,4,0,0,1-2.48.74m2.41-5.21h0a3.24,3.24,0,0,0-.59-1.86,2.08,2.08,0,0,0-1.72-.74,2.23,2.23,0,0,0-1.83.85,3.35,3.35,0,0,0-.65,1.75Zm9.6,5.21a2.83,2.83,0,0,1-2-.68,2.32,2.32,0,0,1-.74-1.82,2.45,2.45,0,0,1,.69-1.84,3.37,3.37,0,0,1,2-.86l2-.25a3.4,3.4,0,0,0,.46-.08.73.73,0,0,0,.43-.29,1,1,0,0,0,.15-.55v-.07a1.27,1.27,0,0,0-.52-1.09,2.41,2.41,0,0,0-1.46-.39,2.18,2.18,0,0,0-1.4.41,1.86,1.86,0,0,0-.6,1.24h-1.33a2.78,2.78,0,0,1,1-2.13,4.06,4.06,0,0,1,2.56-.71,3.68,3.68,0,0,1,2.39.68,2.44,2.44,0,0,1,.82,2v4.74a.46.46,0,0,0,.14.34.47.47,0,0,0,.36.13h.19l.27,0v1a3.17,3.17,0,0,1-.44.12,1.66,1.66,0,0,1-.4.05,1.47,1.47,0,0,1-1.19-.44,1.8,1.8,0,0,1-.35-.85,3.37,3.37,0,0,1-.37.39,3.86,3.86,0,0,1-2.66,1m3-3.64v-.94a3.08,3.08,0,0,1-.89.27l-1.32.19a3.43,3.43,0,0,0-1.54.49,1.09,1.09,0,0,0-.48.93,1.51,1.51,0,0,0,.39,1.12,1.54,1.54,0,0,0,1.13.4,3.09,3.09,0,0,0,1.92-.62,2.12,2.12,0,0,0,.72-1,1.53,1.53,0,0,0,.05-.32,4.27,4.27,0,0,0,0-.52m4.33,3.41v-8.61h1.37v1.26l.33-.43a2.92,2.92,0,0,1,5.31,1.88v5.9H482v-5.42a2.51,2.51,0,0,0-.44-1.64,1.78,1.78,0,0,0-1.41-.5,2,2,0,0,0-1.66.79,3.51,3.51,0,0,0-.6,2.15v4.62h-1.45Zm12.86.23a3.29,3.29,0,0,1-2.74-1.3,5.41,5.41,0,0,1-1-3.49,4.8,4.8,0,0,1,1-3.13,3.21,3.21,0,0,1,2.59-1.19,2.89,2.89,0,0,1,2.5,1.34l.12.16V386h1.45v11.82H491.8V396.6l-.18.26a2.82,2.82,0,0,1-2.35,1.15m.09-7.81a2.05,2.05,0,0,0-1.78.78,4.33,4.33,0,0,0-.56,2.47,4.2,4.2,0,0,0,.61,2.46,2,2,0,0,0,1.73.87,2.06,2.06,0,0,0,1.69-.8,3.21,3.21,0,0,0,.65-2.1,5.12,5.12,0,0,0-.61-2.72,1.93,1.93,0,0,0-1.73-1" transform="translate(-226.58 -137.75)"/><path class="cls-2" d="M234.33,389.38h0a2.36,2.36,0,0,0-.88-1.73,3.29,3.29,0,0,0-2.09-.61,3.4,3.4,0,0,0-2.06.52,1.81,1.81,0,0,0-.71,1.53,1.2,1.2,0,0,0,.47,1,6,6,0,0,0,1.88.67l2.06.49a4.68,4.68,0,0,1,2.37,1.16,3.11,3.11,0,0,1,.71,2.18,3,3,0,0,1-1.22,2.55,5.3,5.3,0,0,1-3.3.94,5.45,5.45,0,0,1-3.62-1.09,3.61,3.61,0,0,1-1.27-2.92V394h1.47a2.42,2.42,0,0,0,.93,2,3.9,3.9,0,0,0,2.49.7,4.06,4.06,0,0,0,2.24-.51,1.65,1.65,0,0,0,.76-1.48,1.53,1.53,0,0,0-.5-1.27,5.51,5.51,0,0,0-2-.76l-2.06-.5a4.88,4.88,0,0,1-2.23-1,2.52,2.52,0,0,1-.67-1.84,3.37,3.37,0,0,1,1.16-2.69,4.57,4.57,0,0,1,3.12-1,4.72,4.72,0,0,1,3.17,1,3.69,3.69,0,0,1,1.27,2.76Zm7.53,8.63a3.67,3.67,0,0,1-2.89-1.26,5.46,5.46,0,0,1,0-6.6,4,4,0,0,1,5.79,0,5.5,5.5,0,0,1,0,6.6,3.66,3.66,0,0,1-2.9,1.26m0-1.25a2.19,2.19,0,0,0,1.82-.89,4.67,4.67,0,0,0,0-4.82,2.17,2.17,0,0,0-1.82-.9,2.12,2.12,0,0,0-1.81.9,4.67,4.67,0,0,0,0,4.82,2.14,2.14,0,0,0,1.81.89m7.58-7.59v5.55a2.41,2.41,0,0,0,.42,1.56,1.72,1.72,0,0,0,1.35.48,2,2,0,0,0,1.66-.81,3.54,3.54,0,0,0,.61-2.19v-4.59h1.45v8.61h-1.38v-1.31a3.28,3.28,0,0,1-.32.44,2.92,2.92,0,0,1-2.31,1.1,3,3,0,0,1-2.2-.73,3,3,0,0,1-.72-2.2v-5.91h1.44Zm11.26,8.59a7.49,7.49,0,0,1-1.08.12,1.8,1.8,0,0,1-1.35-.42,2.11,2.11,0,0,1-.38-1.44v-5.69H256.7v-1.16h1.19v-2.41h1.45v2.41h1.36v1.16h-1.36V396a.56.56,0,0,0,.22.47,1.08,1.08,0,0,0,.62.16h.52Zm1.85,0V386H264v4.37l.26-.32a2.92,2.92,0,0,1,5.31,1.88v5.9h-1.45v-5.55a2.3,2.3,0,0,0-.4-1.53,1.68,1.68,0,0,0-1.34-.48,2.1,2.1,0,0,0-1.73.79,3.34,3.34,0,0,0-.65,2.15v4.62h-1.44Zm13.09.23a3.69,3.69,0,0,1-2.87-1.16,4.64,4.64,0,0,1-1-3.21,5.07,5.07,0,0,1,1.11-3.45,3.69,3.69,0,0,1,3-1.29,3.39,3.39,0,0,1,2.73,1.26,5,5,0,0,1,1,3.3l0,.51h-6.28a3.7,3.7,0,0,0,.59,2,2.22,2.22,0,0,0,1.92.83,2.33,2.33,0,0,0,1.45-.47,1.86,1.86,0,0,0,.76-1.17h1.43a3.58,3.58,0,0,1-1.29,2.15,4,4,0,0,1-2.49.74m2.43-5.21h0a3.31,3.31,0,0,0-.6-1.86,2.08,2.08,0,0,0-1.72-.74,2.24,2.24,0,0,0-1.83.85,3.23,3.23,0,0,0-.65,1.75Zm3.86,5v-8.61h1.37v1.47a4.57,4.57,0,0,1,.4-.63,2.44,2.44,0,0,1,2-1.11,1.4,1.4,0,0,1,.4.07v1.49h-.29a2.31,2.31,0,0,0-1.81.71,2.89,2.89,0,0,0-.64,2v4.62h-1.45Zm5.72,0v-8.61H289v1.26l.31-.43a3,3,0,0,1,2.36-1.1,2.71,2.71,0,0,1,3,3v5.9h-1.45v-5.42a2.51,2.51,0,0,0-.44-1.64,1.83,1.83,0,0,0-1.42-.5,2,2,0,0,0-1.65.79,3.45,3.45,0,0,0-.62,2.15v4.62h-1.44Zm22.79-4.33a4.27,4.27,0,0,1-4.65,4.66,4.17,4.17,0,0,1-4.66-4.66V386h1.6v7.38a3.58,3.58,0,0,0,.78,2.5,3.44,3.44,0,0,0,4.55,0,3.58,3.58,0,0,0,.78-2.5V386h1.6Zm2.79,4.33v-8.61h1.37v1.26l.33-.43a3.25,3.25,0,0,1,4.55-.32,3,3,0,0,1,.77,2.2v5.9H318.8v-5.42a2.51,2.51,0,0,0-.44-1.64,1.8,1.8,0,0,0-1.41-.5,2,2,0,0,0-1.66.79,3.45,3.45,0,0,0-.61,2.15v4.62h-1.45Zm9.64,0v-8.61h1.45v8.61h-1.45Zm0-11.84h1.49v1.64h-1.49Zm3.12,3.23h1.69l2.31,7,2.38-7H334l-3.21,8.61h-1.55ZM339.08,398a3.69,3.69,0,0,1-2.87-1.16,4.59,4.59,0,0,1-1-3.21,5.07,5.07,0,0,1,1.1-3.45,3.72,3.72,0,0,1,3-1.29,3.39,3.39,0,0,1,2.73,1.26,5,5,0,0,1,1,3.3l0,.51h-6.28a3.7,3.7,0,0,0,.58,2,2.26,2.26,0,0,0,1.93.83,2.33,2.33,0,0,0,1.45-.47,1.86,1.86,0,0,0,.76-1.17h1.43a3.67,3.67,0,0,1-1.29,2.15,4,4,0,0,1-2.49.74m2.43-5.21h0a3.31,3.31,0,0,0-.6-1.86,2.09,2.09,0,0,0-1.73-.74,2.23,2.23,0,0,0-1.82.85,3.31,3.31,0,0,0-.65,1.75Zm3.86,5v-8.61h1.37v1.47a4.57,4.57,0,0,1,.4-.63,2.44,2.44,0,0,1,2-1.11,1.53,1.53,0,0,1,.41.07v1.49h-.3a2.31,2.31,0,0,0-1.81.71,2.84,2.84,0,0,0-.64,2v4.62h-1.45ZM356,391.65h0a1.49,1.49,0,0,0-.58-1.1,2.28,2.28,0,0,0-1.4-.4,2.51,2.51,0,0,0-1.38.32,1,1,0,0,0-.46.91.83.83,0,0,0,.32.7,4.72,4.72,0,0,0,1.32.46l1.5.36a3.77,3.77,0,0,1,1.8.84,2.05,2.05,0,0,1,.53,1.49,2.5,2.5,0,0,1-.92,2,3.86,3.86,0,0,1-2.5.75,4.28,4.28,0,0,1-2.71-.72,2.94,2.94,0,0,1-1-2.26h1.38a1.82,1.82,0,0,0,.65,1.32,2.83,2.83,0,0,0,1.67.41,2.47,2.47,0,0,0,1.48-.37,1.26,1.26,0,0,0,.51-1.08.8.8,0,0,0-.33-.69,4.39,4.39,0,0,0-1.33-.46l-1.5-.36a3.53,3.53,0,0,1-1.73-.81,2,2,0,0,1-.52-1.44,2.38,2.38,0,0,1,.87-1.94,4.26,4.26,0,0,1,4.74,0,2.62,2.62,0,0,1,.95,2Zm3.79,6.13v-8.61h1.45v8.61H359.8Zm0-11.84h1.49v1.64h-1.49ZM367,397.76a7.79,7.79,0,0,1-1.08.12,1.8,1.8,0,0,1-1.35-.42,2.16,2.16,0,0,1-.39-1.44v-5.69H363v-1.16h1.18v-2.41h1.45v2.41H367v1.16h-1.37V396a.57.57,0,0,0,.23.47,1.06,1.06,0,0,0,.62.16H367Zm8.82-8.59-3.28,8.89a8.53,8.53,0,0,1-1.34,2.61,2.35,2.35,0,0,1-1.77.61,2.65,2.65,0,0,1-.71-.09v-1.35a2.49,2.49,0,0,0,.83.13,1,1,0,0,0,.82-.4,5.89,5.89,0,0,0,.75-1.51l0-.14h0l-3.2-8.76h1.65l2.3,7.12,2.33-7.12h1.59Z" transform="translate(-226.58 -137.75)"/></svg>